<svg width="497" height="321" viewBox="0 0 497 321" fill="none" xmlns="http://www.w3.org/2000/svg">
<path d="M0.5 160.58V320.548H196.803C196.803 320.548 416.694 320.633 460.463 320.548H496.5L496.238 175.561C496.107 95.9156 495.714 23.8876 495.452 15.5929L495.059 0.611786H247.779H0.5V160.58ZM321.5 44.6118C304.023 44.6118 131.5 46.8745 131.5 43.9942C131.5 43.1478 131.5 41.9942 131.5 41.9942C131.5 41.9942 294.65 40.3798 321.5 40.3798V44.6118ZM105.845 161.087L96.5 161.195V68.3458L106.5 68.407L105.845 161.087ZM425.736 181.232C425.736 181.486 425.212 181.909 424.426 182.163C423.771 182.417 423.116 182.248 423.116 181.825C423.116 181.317 423.771 180.893 424.426 180.893C425.212 180.893 425.736 181.063 425.736 181.232ZM472.912 181.74C472.912 182.163 472.65 182.586 472.388 182.586C471.995 182.586 471.34 182.163 470.947 181.74C470.553 181.232 470.815 180.893 471.471 180.893C472.257 180.893 472.912 181.232 472.912 181.74ZM425.736 191.389C425.736 191.643 425.212 192.066 424.426 192.32C423.771 192.574 423.116 192.404 423.116 191.981C423.116 191.473 423.771 191.05 424.426 191.05C425.212 191.05 425.736 191.219 425.736 191.389ZM441.462 191.897C441.462 192.32 440.938 192.743 440.151 192.743C439.496 192.743 438.841 192.32 438.841 191.897C438.841 191.389 439.496 191.05 440.151 191.05C440.938 191.05 441.462 191.389 441.462 191.897ZM457.187 191.897C457.187 192.32 456.663 192.743 455.876 192.743C455.221 192.743 454.566 192.32 454.566 191.897C454.566 191.389 455.221 191.05 455.876 191.05C456.663 191.05 457.187 191.389 457.187 191.897ZM472.912 191.897C472.912 192.32 472.388 192.743 471.602 192.743C470.946 192.743 470.291 192.32 470.291 191.897C470.291 191.389 470.946 191.05 471.602 191.05C472.388 191.05 472.912 191.389 472.912 191.897ZM425.736 202.053C425.736 202.477 425.212 202.9 424.426 202.9C423.771 202.9 423.116 202.477 423.116 202.053C423.116 201.545 423.771 201.207 424.426 201.207C425.212 201.207 425.736 201.545 425.736 202.053ZM441.462 202.053C441.462 202.477 440.938 202.9 440.151 202.9C439.496 202.9 438.841 202.477 438.841 202.053C438.841 201.545 439.496 201.207 440.151 201.207C440.938 201.207 441.462 201.545 441.462 202.053ZM457.187 202.053C457.187 202.477 456.663 202.9 455.876 202.9C455.221 202.9 454.566 202.477 454.566 202.053C454.566 201.545 455.221 201.207 455.876 201.207C456.663 201.207 457.187 201.545 457.187 202.053ZM472.912 202.053C472.912 202.477 472.388 202.9 471.602 202.9C470.946 202.9 470.291 202.477 470.291 202.053C470.291 201.545 470.946 201.207 471.602 201.207C472.388 201.207 472.912 201.545 472.912 202.053ZM425.736 212.21C425.736 212.633 425.212 213.056 424.426 213.056C423.771 213.056 423.116 212.633 423.116 212.21C423.116 211.702 423.771 211.364 424.426 211.364C425.212 211.364 425.736 211.702 425.736 212.21ZM441.462 212.21C441.462 212.633 440.544 213.056 439.365 213.056C438.317 213.056 437.792 212.633 438.186 212.21C438.579 211.702 439.496 211.364 440.282 211.364C440.938 211.364 441.462 211.702 441.462 212.21ZM457.187 212.21C457.187 212.633 456.663 213.056 455.876 213.056C455.221 213.056 454.566 212.633 454.566 212.21C454.566 211.702 455.221 211.364 455.876 211.364C456.663 211.364 457.187 211.702 457.187 212.21ZM472.912 212.21C472.912 212.633 472.388 213.056 471.602 213.056C470.946 213.056 470.291 212.633 470.291 212.21C470.291 211.702 470.946 211.364 471.602 211.364C472.388 211.364 472.912 211.702 472.912 212.21ZM425.474 222.451C425.212 222.959 424.426 223.298 423.771 223.298C423.116 223.298 422.329 222.959 422.067 222.451C421.805 221.944 422.591 221.52 423.771 221.52C424.95 221.52 425.736 221.944 425.474 222.451ZM441.462 222.875C441.462 224.313 438.579 224.06 437.792 222.536C437.53 221.944 438.186 221.52 439.365 221.52C440.544 221.52 441.462 222.113 441.462 222.875ZM457.187 222.79C457.187 223.467 456.663 224.06 455.876 224.06C455.221 224.06 454.566 223.467 454.566 222.79C454.566 222.113 455.221 221.52 455.876 221.52C456.663 221.52 457.187 222.113 457.187 222.79ZM472.912 222.79C472.912 223.467 472.388 224.06 471.602 224.06C470.946 224.06 470.291 223.467 470.291 222.79C470.291 222.113 470.946 221.52 471.602 221.52C472.388 221.52 472.912 222.113 472.912 222.79ZM425.736 233.031C425.736 233.793 425.081 234.216 424.164 234.047C421.805 233.539 421.412 231.677 423.64 231.677C424.819 231.677 425.736 232.27 425.736 233.031ZM441.462 233.031C441.462 234.47 438.579 234.216 437.792 232.693C437.53 232.1 438.186 231.677 439.365 231.677C440.544 231.677 441.462 232.27 441.462 233.031ZM457.187 232.947C457.187 233.624 456.663 234.216 456.008 234.216C454.304 234.216 453.125 232.862 454.173 232.185C455.614 231.254 457.187 231.677 457.187 232.947ZM473.567 232.439C474.485 233.454 471.995 234.47 470.291 233.793C468.85 233.201 469.767 231.677 471.602 231.677C472.257 231.677 473.043 232.016 473.567 232.439ZM425.736 243.103C425.736 243.78 424.819 244.373 423.771 244.373C422.722 244.373 421.805 243.78 421.805 243.103C421.805 242.426 422.722 241.834 423.771 241.834C424.819 241.834 425.736 242.426 425.736 243.103ZM441.462 243.188C441.462 244.627 438.579 244.373 437.792 242.849C437.53 242.257 438.186 241.834 439.365 241.834C440.544 241.834 441.462 242.426 441.462 243.188ZM457.842 242.596C458.759 243.611 456.27 244.627 454.566 243.95C453.125 243.357 454.042 241.834 455.876 241.834C456.532 241.834 457.318 242.172 457.842 242.596ZM473.567 242.596C474.485 243.611 471.995 244.627 470.291 243.95C468.85 243.357 469.767 241.834 471.602 241.834C472.257 241.834 473.043 242.172 473.567 242.596ZM425.736 253.26C425.736 253.937 424.819 254.53 423.771 254.53C422.722 254.53 421.805 253.937 421.805 253.26C421.805 252.583 422.722 251.99 423.771 251.99C424.819 251.99 425.736 252.583 425.736 253.26ZM441.855 253.26C441.986 253.683 441.069 254.191 439.889 254.36C438.448 254.53 437.53 254.106 437.53 253.26C437.53 251.821 441.462 251.737 441.855 253.26ZM457.842 252.837C458.235 253.345 457.711 253.937 456.532 254.191C454.042 254.868 452.6 254.191 453.911 252.922C454.959 251.737 456.794 251.737 457.842 252.837ZM474.223 252.752C474.223 253.937 471.864 254.699 470.291 254.106C469.505 253.768 469.243 253.175 469.636 252.752C470.684 251.737 474.223 251.737 474.223 252.752ZM425.736 263.417C425.736 264.094 424.819 264.686 423.771 264.686C422.722 264.686 421.805 264.094 421.805 263.417C421.805 262.74 422.722 262.147 423.771 262.147C424.819 262.147 425.736 262.74 425.736 263.417ZM441.2 263.586C440.675 265.448 438.317 265.279 437.792 263.501C437.53 262.655 438.186 262.147 439.496 262.147C440.806 262.147 441.462 262.74 441.2 263.586ZM457.842 262.994C458.235 263.501 457.711 264.094 456.532 264.348C454.042 265.025 452.6 264.348 453.911 263.078C454.959 261.893 456.794 261.893 457.842 262.994ZM473.961 263.671C474.223 264.263 473.174 264.686 471.733 264.686C468.981 264.686 468.195 263.755 469.898 262.655C471.078 261.893 473.305 262.486 473.961 263.671ZM251.448 273.997C251.448 274.928 250.531 275.689 249.483 275.689C248.434 275.689 247.517 274.928 247.517 273.997C247.517 273.066 248.434 272.304 249.483 272.304C250.531 272.304 251.448 273.066 251.448 273.997ZM267.174 273.997C267.174 274.928 266.256 275.689 265.208 275.689C263.242 275.689 262.456 273.912 264.16 272.896C265.732 271.796 267.174 272.304 267.174 273.997ZM283.292 273.574C284.34 275.097 281.851 276.197 280.016 275.012C278.575 274.081 279.623 272.304 281.589 272.304C282.113 272.304 282.899 272.896 283.292 273.574ZM299.41 273.235C300.721 274.674 297.707 276.282 295.872 275.097C294.3 274.081 295.348 272.304 297.314 272.304C297.969 272.304 298.886 272.727 299.41 273.235ZM315.136 273.235C316.446 274.674 313.432 276.282 311.598 275.097C310.025 274.081 311.073 272.304 313.039 272.304C313.694 272.304 314.612 272.727 315.136 273.235ZM330.861 273.235C332.171 274.674 329.157 276.282 327.323 275.097C325.75 274.081 326.799 272.304 328.764 272.304C329.419 272.304 330.337 272.727 330.861 273.235ZM347.11 273.489C347.11 274.166 346.455 275.012 345.669 275.351C343.834 276.028 341.344 274.42 342.393 273.235C343.703 271.881 347.11 272.135 347.11 273.489ZM362.836 273.489C362.836 275.266 360.084 276.113 358.904 274.758C358.249 274.166 358.118 273.32 358.38 272.981C359.559 271.796 362.836 272.219 362.836 273.489ZM378.299 273.743C377.643 275.859 374.629 276.113 374.629 274.081C374.629 273.066 375.416 272.304 376.726 272.304C377.906 272.304 378.561 272.896 378.299 273.743ZM394.286 274.081C394.286 276.113 391.272 275.859 390.617 273.743C390.355 272.896 391.01 272.304 392.189 272.304C393.5 272.304 394.286 273.066 394.286 274.081ZM409.749 273.743C409.225 275.605 406.866 275.436 406.342 273.658C406.08 272.812 406.735 272.304 408.046 272.304C409.356 272.304 410.011 272.896 409.749 273.743ZM425.736 274.081C425.736 276.113 422.722 275.859 422.067 273.743C421.805 272.896 422.46 272.304 423.64 272.304C424.95 272.304 425.736 273.066 425.736 274.081ZM442.248 273.235C443.165 274.251 440.282 275.859 438.579 275.182C438.055 274.928 437.53 274.166 437.53 273.489C437.53 272.05 440.938 271.881 442.248 273.235ZM457.973 273.235C459.284 274.674 456.27 276.282 454.435 275.097C452.862 274.081 453.911 272.304 455.876 272.304C456.532 272.304 457.449 272.727 457.973 273.235ZM473.961 273.827C474.223 274.42 473.174 274.843 471.733 274.843C468.981 274.843 468.195 273.912 469.898 272.812C471.078 272.05 473.305 272.642 473.961 273.827ZM251.448 284.661C251.448 285.338 250.531 285.846 249.483 285.846C247.517 285.846 246.731 284.069 248.303 283.053C249.614 282.291 251.448 283.222 251.448 284.661ZM267.698 285.084C266.65 286.269 263.242 286.015 263.242 284.746C263.242 284.069 263.636 283.307 264.16 283.053C265.339 282.291 268.615 284.153 267.698 285.084ZM284.209 284.238C284.209 285.254 280.409 286.269 279.361 285.592C278.968 285.254 278.968 284.492 279.361 283.815C280.147 282.461 284.209 282.884 284.209 284.238ZM299.41 283.392C300.721 284.831 297.707 286.439 295.872 285.254C294.3 284.238 295.348 282.461 297.314 282.461C297.969 282.461 298.886 282.884 299.41 283.392ZM315.136 283.392C316.446 284.831 313.432 286.439 311.598 285.254C310.025 284.238 311.073 282.461 313.039 282.461C313.694 282.461 314.612 282.884 315.136 283.392ZM330.861 283.392C332.171 284.831 329.157 286.439 327.323 285.254C325.75 284.238 326.799 282.461 328.764 282.461C329.419 282.461 330.337 282.884 330.861 283.392ZM346.586 283.392C347.897 284.831 344.883 286.439 343.048 285.254C341.475 284.238 342.524 282.461 344.489 282.461C345.145 282.461 346.062 282.884 346.586 283.392ZM362.18 284.153C362.18 284.746 361.394 285.423 360.608 285.592C359.559 285.846 358.904 285.254 358.904 284.153C358.904 283.053 359.559 282.461 360.608 282.63C361.394 282.884 362.18 283.561 362.18 284.153ZM378.299 284.407C378.561 285.254 377.906 285.846 376.726 285.846C375.416 285.846 374.629 285.084 374.629 284.069C374.629 282.037 377.643 282.291 378.299 284.407ZM394.286 284.153C394.286 285.084 393.369 285.846 392.32 285.846C391.272 285.846 390.355 285.084 390.355 284.153C390.355 283.222 391.272 282.461 392.32 282.461C393.369 282.461 394.286 283.222 394.286 284.153ZM410.011 284.153C410.011 285.084 409.094 285.846 408.046 285.846C406.997 285.846 406.08 285.084 406.08 284.153C406.08 283.222 406.997 282.461 408.046 282.461C409.094 282.461 410.011 283.222 410.011 284.153ZM425.736 284.153C425.736 285.084 424.819 285.846 423.771 285.846C422.722 285.846 421.805 285.084 421.805 284.153C421.805 283.222 422.722 282.461 423.771 282.461C424.819 282.461 425.736 283.222 425.736 284.153ZM442.248 283.392C443.558 284.831 440.544 286.439 438.71 285.254C437.137 284.238 438.186 282.461 440.151 282.461C440.806 282.461 441.724 282.884 442.248 283.392ZM457.973 283.392C459.284 284.831 456.27 286.439 454.435 285.254C452.862 284.238 453.911 282.461 455.876 282.461C456.532 282.461 457.449 282.884 457.973 283.392ZM473.961 284.492C474.354 285.592 473.829 285.931 472.126 285.677C470.684 285.508 469.505 284.746 469.243 283.815C468.85 282.715 469.374 282.376 471.078 282.63C472.519 282.799 473.698 283.561 473.961 284.492ZM457.711 292.279C459.022 294.479 458.628 296.003 456.663 296.003C453.911 296.003 452.731 294.479 454.435 293.125C455.221 292.533 455.483 291.771 454.959 291.517C454.566 291.178 454.697 290.925 455.483 290.925C456.27 290.925 457.318 291.517 457.711 292.279ZM267.698 295.241C266.65 296.426 263.242 296.172 263.242 294.903C263.242 294.225 263.636 293.464 264.16 293.21C265.339 292.448 268.615 294.31 267.698 295.241ZM299.935 294.395C299.935 295.41 296.134 296.426 295.086 295.749C294.693 295.41 294.693 294.649 295.086 293.972C295.872 292.617 299.935 293.041 299.935 294.395ZM315.136 295.072C313.825 296.426 310.418 296.172 310.418 294.818C310.418 293.379 313.17 292.533 314.874 293.464C315.398 293.887 315.529 294.564 315.136 295.072ZM331.385 294.818C331.385 296.257 327.978 296.426 326.668 295.072C325.75 294.056 328.633 292.448 330.337 293.125C330.861 293.379 331.385 294.141 331.385 294.818ZM346.586 293.548C347.897 294.987 344.883 296.595 343.048 295.41C341.475 294.395 342.524 292.617 344.489 292.617C345.145 292.617 346.062 293.041 346.586 293.548ZM362.836 294.818C362.836 296.003 360.084 296.426 358.511 295.41C357.332 294.649 360.215 292.533 361.656 293.125C362.311 293.379 362.836 294.141 362.836 294.818ZM378.299 294.564C378.561 295.41 377.906 296.003 376.726 296.003C375.416 296.003 374.629 295.241 374.629 294.226C374.629 292.194 377.643 292.448 378.299 294.564ZM394.286 294.818C394.286 295.495 393.369 296.003 392.32 296.003C390.355 296.003 389.568 294.226 391.141 293.21C392.451 292.448 394.286 293.379 394.286 294.818ZM410.011 294.31C410.011 295.241 409.094 296.003 408.046 296.003C406.997 296.003 406.08 295.241 406.08 294.31C406.08 293.379 406.997 292.617 408.046 292.617C409.094 292.617 410.011 293.379 410.011 294.31ZM426.13 293.125C427.309 293.972 425.605 296.003 423.64 296.003C422.591 296.003 421.805 295.495 421.805 294.903C421.805 293.041 424.295 291.94 426.13 293.125ZM442.51 294.564C442.772 295.58 442.117 296.003 440.282 296.003C438.317 296.003 437.53 295.495 437.53 294.226C437.53 292.11 441.855 292.363 442.51 294.564ZM473.698 293.548C475.009 294.987 471.995 296.595 470.16 295.41C468.588 294.395 469.636 292.617 471.602 292.617C472.257 292.617 473.174 293.041 473.698 293.548ZM251.448 294.733C251.448 295.41 250.531 296.003 249.483 296.003C248.434 296.003 247.517 295.41 247.517 294.733C247.517 294.056 248.434 293.464 249.483 293.464C250.531 293.464 251.448 294.056 251.448 294.733ZM283.947 294.479C283.03 296.088 278.968 296.341 278.968 294.818C278.968 293.972 280.147 293.464 281.72 293.464C283.292 293.464 284.209 293.887 283.947 294.479ZM449.848 295.072C450.373 295.495 449.455 295.664 448.014 295.41C445 294.903 444.607 294.31 447.228 294.31C448.276 294.31 449.455 294.649 449.848 295.072ZM442.248 303.79C442.117 305.99 437.53 307.091 437.53 304.975C437.53 304.044 440.151 302.351 442.248 301.928C442.379 301.928 442.379 302.774 442.248 303.79ZM267.698 305.398C266.65 306.583 263.242 306.329 263.242 305.059C263.242 304.382 263.636 303.62 264.16 303.367C265.339 302.605 268.615 304.467 267.698 305.398ZM347.11 304.975C347.11 306.414 343.703 306.583 342.393 305.229C341.475 304.213 344.358 302.605 346.062 303.282C346.586 303.536 347.11 304.298 347.11 304.975ZM362.836 304.975C362.836 306.16 360.084 306.583 358.511 305.567C357.332 304.805 360.215 302.689 361.656 303.282C362.311 303.536 362.836 304.298 362.836 304.975ZM378.561 304.975C378.561 305.652 377.643 306.16 376.595 306.16C374.629 306.16 373.843 304.382 375.416 303.367C376.726 302.605 378.561 303.536 378.561 304.975ZM394.286 304.975C394.286 305.652 393.369 306.16 392.32 306.16C390.355 306.16 389.568 304.382 391.141 303.367C392.451 302.605 394.286 303.536 394.286 304.975ZM410.535 305.398C409.487 306.583 406.08 306.329 406.08 305.059C406.08 304.382 406.473 303.62 406.997 303.367C408.177 302.605 411.453 304.467 410.535 305.398ZM427.571 304.298C429.668 305.821 429.537 305.906 425.736 305.99C422.067 306.075 420.495 304.721 422.722 303.367C424.033 302.436 425.212 302.689 427.571 304.298ZM457.842 304.551C457.842 305.144 456.794 305.821 455.614 305.99C453.256 306.244 452.338 304.467 454.173 303.282C455.483 302.436 457.842 303.197 457.842 304.551ZM473.698 303.705C475.009 305.144 471.995 306.752 470.16 305.567C468.588 304.551 469.636 302.774 471.602 302.774C472.257 302.774 473.174 303.197 473.698 303.705ZM251.448 304.89C251.448 305.567 250.531 306.16 249.483 306.16C248.434 306.16 247.517 305.567 247.517 304.89C247.517 304.213 248.434 303.62 249.483 303.62C250.531 303.62 251.448 304.213 251.448 304.89ZM283.292 304.89C283.423 305.313 282.506 305.821 281.326 305.99C279.885 306.16 278.968 305.736 278.968 304.89C278.968 303.451 282.899 303.367 283.292 304.89ZM299.673 304.636C298.755 306.244 294.693 306.498 294.693 304.975C294.693 304.128 295.872 303.62 297.445 303.62C299.017 303.62 299.935 304.044 299.673 304.636ZM315.66 304.89C315.66 305.567 314.48 306.16 313.039 306.16C311.597 306.16 310.418 305.567 310.418 304.89C310.418 304.213 311.597 303.62 313.039 303.62C314.48 303.62 315.66 304.213 315.66 304.89ZM331.385 304.975C331.385 305.736 330.468 306.16 329.157 305.99C325.881 305.567 325.488 303.62 328.633 303.62C330.206 303.62 331.385 304.128 331.385 304.975Z" fill="#DBA577"/>
<path d="M86.5214 38.2537C86.5214 37.9151 88.0939 36.4763 89.9286 35.0374C93.9909 31.8211 91.6321 31.4826 85.0799 34.3603C74.7275 38.8462 71.1893 47.3947 78.1346 50.9496C84.1626 53.9966 92.0253 52.8963 94.5151 48.7489C96.4807 45.448 94.7772 41.9779 90.3217 40.2851C88.225 39.4387 86.5214 38.5922 86.5214 38.2537Z" fill="#0A0301"/>
<path d="M117.417 41.1203C113.355 39.6814 113.486 38.4964 117.679 35.7033C120.693 33.7566 120.824 33.5027 118.728 33.5027C111.52 33.5874 103.106 41.368 102.844 46.9542C102.582 55.4181 119.749 57.4495 123.68 49.4934C124.86 47.0388 121.348 42.3899 117.417 41.1203Z" fill="#040000"/>
</svg>
