<svg width="496" height="320" viewBox="0 0 496 320" fill="none" xmlns="http://www.w3.org/2000/svg">
<path d="M0 159.968V319.937H196.303C434.672 320.021 416.194 320.021 459.963 319.937H496L495.738 174.949C495.607 95.3038 495.214 23.2758 494.952 14.9812L494.559 -7.55297e-06H247.279H0V159.968ZM59.1007 35.6332C57.266 37.072 55.6935 38.5109 55.6935 38.8494C55.6935 39.188 57.3971 40.0344 59.4938 40.8808C63.9493 42.5736 65.6528 46.0438 63.6872 49.3447C61.1974 53.492 53.3347 54.5923 47.3067 51.5453C40.3614 47.9905 43.8996 39.4419 54.252 34.956C60.8042 32.0783 63.163 32.4169 59.1007 35.6332ZM83.9989 35.2099C79.8056 38.003 79.6745 39.188 83.7369 40.6269C87.6682 41.8964 90.289 45.7898 89.1096 48.2444C85.1783 56.2005 68.0116 54.1691 68.2737 45.7052C68.5358 40.119 77.8399 33.094 85.0473 33.0093C87.144 33.0093 87.0129 33.2632 83.9989 35.2099ZM248.328 42.7428V44.8588H179.53C113.746 44.8588 110.732 44.7742 110.732 43.3353C110.732 42.4889 111.125 41.4733 111.649 41.2193C112.042 40.8808 143.1 40.6269 180.447 40.6269H248.328V42.7428ZM69.8462 114.009L69.4531 160.391L66.5701 160.476L63.5561 160.561V114.178V67.7114H66.8322H70.1083L69.8462 114.009ZM425.236 180.62C425.236 180.874 424.712 181.297 423.926 181.551C423.271 181.805 422.616 181.636 422.616 181.213C422.616 180.705 423.271 180.282 423.926 180.282C424.712 180.282 425.236 180.451 425.236 180.62ZM472.412 181.128C472.412 181.551 472.15 181.974 471.888 181.974C471.495 181.974 470.84 181.551 470.446 181.128C470.053 180.62 470.315 180.282 470.971 180.282C471.757 180.282 472.412 180.62 472.412 181.128ZM425.236 190.777C425.236 191.031 424.712 191.454 423.926 191.708C423.271 191.962 422.616 191.793 422.616 191.369C422.616 190.862 423.271 190.438 423.926 190.438C424.712 190.438 425.236 190.608 425.236 190.777ZM440.962 191.285C440.962 191.708 440.437 192.131 439.651 192.131C438.996 192.131 438.341 191.708 438.341 191.285C438.341 190.777 438.996 190.438 439.651 190.438C440.437 190.438 440.962 190.777 440.962 191.285ZM456.687 191.285C456.687 191.708 456.163 192.131 455.376 192.131C454.721 192.131 454.066 191.708 454.066 191.285C454.066 190.777 454.721 190.438 455.376 190.438C456.163 190.438 456.687 190.777 456.687 191.285ZM472.412 191.285C472.412 191.708 471.888 192.131 471.102 192.131C470.446 192.131 469.791 191.708 469.791 191.285C469.791 190.777 470.446 190.438 471.102 190.438C471.888 190.438 472.412 190.777 472.412 191.285ZM488.137 191.285C488.137 191.708 487.613 192.131 486.827 192.131C486.172 192.131 485.517 191.708 485.517 191.285C485.517 190.777 486.172 190.438 486.827 190.438C487.613 190.438 488.137 190.777 488.137 191.285ZM425.236 201.442C425.236 201.865 424.712 202.288 423.926 202.288C423.271 202.288 422.616 201.865 422.616 201.442C422.616 200.934 423.271 200.595 423.926 200.595C424.712 200.595 425.236 200.934 425.236 201.442ZM440.962 201.442C440.962 201.865 440.437 202.288 439.651 202.288C438.996 202.288 438.341 201.865 438.341 201.442C438.341 200.934 438.996 200.595 439.651 200.595C440.437 200.595 440.962 200.934 440.962 201.442ZM456.687 201.442C456.687 201.865 456.163 202.288 455.376 202.288C454.721 202.288 454.066 201.865 454.066 201.442C454.066 200.934 454.721 200.595 455.376 200.595C456.163 200.595 456.687 200.934 456.687 201.442ZM472.412 201.442C472.412 201.865 471.888 202.288 471.102 202.288C470.446 202.288 469.791 201.865 469.791 201.442C469.791 200.934 470.446 200.595 471.102 200.595C471.888 200.595 472.412 200.934 472.412 201.442ZM488.137 201.442C488.137 201.865 487.613 202.288 486.827 202.288C486.172 202.288 485.517 201.865 485.517 201.442C485.517 200.934 486.172 200.595 486.827 200.595C487.613 200.595 488.137 200.934 488.137 201.442ZM425.236 211.598C425.236 212.021 424.712 212.445 423.926 212.445C423.271 212.445 422.616 212.021 422.616 211.598C422.616 211.09 423.271 210.752 423.926 210.752C424.712 210.752 425.236 211.09 425.236 211.598ZM440.962 211.598C440.962 212.021 440.044 212.445 438.865 212.445C437.817 212.445 437.292 212.021 437.686 211.598C438.079 211.09 438.996 210.752 439.782 210.752C440.437 210.752 440.962 211.09 440.962 211.598ZM456.687 211.598C456.687 212.021 456.163 212.445 455.376 212.445C454.721 212.445 454.066 212.021 454.066 211.598C454.066 211.09 454.721 210.752 455.376 210.752C456.163 210.752 456.687 211.09 456.687 211.598ZM472.412 211.598C472.412 212.021 471.888 212.445 471.102 212.445C470.446 212.445 469.791 212.021 469.791 211.598C469.791 211.09 470.446 210.752 471.102 210.752C471.888 210.752 472.412 211.09 472.412 211.598ZM488.137 211.598C488.137 212.021 487.613 212.445 486.827 212.445C486.172 212.445 485.517 212.021 485.517 211.598C485.517 211.09 486.172 210.752 486.827 210.752C487.613 210.752 488.137 211.09 488.137 211.598ZM424.974 221.84C424.712 222.347 423.926 222.686 423.271 222.686C422.616 222.686 421.829 222.347 421.567 221.84C421.305 221.332 422.091 220.909 423.271 220.909C424.45 220.909 425.236 221.332 424.974 221.84ZM440.962 222.263C440.962 223.702 438.079 223.448 437.292 221.924C437.03 221.332 437.686 220.909 438.865 220.909C440.044 220.909 440.962 221.501 440.962 222.263ZM456.687 222.178C456.687 222.855 456.163 223.448 455.376 223.448C454.721 223.448 454.066 222.855 454.066 222.178C454.066 221.501 454.721 220.909 455.376 220.909C456.163 220.909 456.687 221.501 456.687 222.178ZM472.412 222.178C472.412 222.855 471.888 223.448 471.102 223.448C470.446 223.448 469.791 222.855 469.791 222.178C469.791 221.501 470.446 220.909 471.102 220.909C471.888 220.909 472.412 221.501 472.412 222.178ZM488.137 222.263C488.137 222.94 487.613 223.278 486.827 223.025C486.172 222.771 485.517 222.178 485.517 221.67C485.517 221.247 486.172 220.909 486.827 220.909C487.613 220.909 488.137 221.501 488.137 222.263ZM425.236 232.419C425.236 233.181 424.581 233.604 423.664 233.435C421.305 232.927 420.912 231.065 423.14 231.065C424.319 231.065 425.236 231.658 425.236 232.419ZM440.962 232.419C440.962 233.858 438.079 233.604 437.292 232.081C437.03 231.488 437.686 231.065 438.865 231.065C440.044 231.065 440.962 231.658 440.962 232.419ZM456.687 232.335C456.687 233.012 456.163 233.604 455.508 233.604C453.804 233.604 452.625 232.25 453.673 231.573C455.114 230.642 456.687 231.065 456.687 232.335ZM473.067 231.827C473.985 232.843 471.495 233.858 469.791 233.181C468.35 232.589 469.267 231.065 471.102 231.065C471.757 231.065 472.543 231.404 473.067 231.827ZM488.399 232.335C488.399 232.758 487.744 233.266 486.958 233.435C486.172 233.604 485.517 233.097 485.517 232.335C485.517 231.573 486.172 231.065 486.958 231.235C487.744 231.404 488.399 231.912 488.399 232.335ZM425.236 242.492C425.236 243.169 424.319 243.761 423.271 243.761C422.222 243.761 421.305 243.169 421.305 242.492C421.305 241.814 422.222 241.222 423.271 241.222C424.319 241.222 425.236 241.814 425.236 242.492ZM440.962 242.576C440.962 244.015 438.079 243.761 437.292 242.238C437.03 241.645 437.686 241.222 438.865 241.222C440.044 241.222 440.962 241.814 440.962 242.576ZM457.342 241.984C458.259 242.999 455.77 244.015 454.066 243.338C452.625 242.745 453.542 241.222 455.376 241.222C456.032 241.222 456.818 241.561 457.342 241.984ZM473.067 241.984C473.985 242.999 471.495 244.015 469.791 243.338C468.35 242.745 469.267 241.222 471.102 241.222C471.757 241.222 472.543 241.561 473.067 241.984ZM488.793 241.984C489.71 242.999 487.22 244.015 485.517 243.338C484.075 242.745 484.992 241.222 486.827 241.222C487.482 241.222 488.268 241.561 488.793 241.984ZM425.236 252.648C425.236 253.325 424.319 253.918 423.271 253.918C422.222 253.918 421.305 253.325 421.305 252.648C421.305 251.971 422.222 251.379 423.271 251.379C424.319 251.379 425.236 251.971 425.236 252.648ZM441.355 252.648C441.486 253.071 440.569 253.579 439.389 253.749C437.948 253.918 437.03 253.495 437.03 252.648C437.03 251.209 440.962 251.125 441.355 252.648ZM457.342 252.225C457.735 252.733 457.211 253.325 456.032 253.579C453.542 254.256 452.1 253.579 453.411 252.31C454.459 251.125 456.294 251.125 457.342 252.225ZM473.723 252.14C473.723 253.325 471.364 254.087 469.791 253.495C469.005 253.156 468.743 252.564 469.136 252.14C470.184 251.125 473.723 251.125 473.723 252.14ZM488.793 252.31C490.103 253.579 488.662 254.256 486.172 253.579C484.992 253.325 484.468 252.733 484.861 252.225C485.91 251.125 487.744 251.125 488.793 252.31ZM425.236 262.805C425.236 263.482 424.319 264.075 423.271 264.075C422.222 264.075 421.305 263.482 421.305 262.805C421.305 262.128 422.222 261.535 423.271 261.535C424.319 261.535 425.236 262.128 425.236 262.805ZM440.7 262.974C440.175 264.836 437.817 264.667 437.292 262.89C437.03 262.043 437.686 261.535 438.996 261.535C440.306 261.535 440.962 262.128 440.7 262.974ZM457.342 262.382C457.735 262.89 457.211 263.482 456.032 263.736C453.542 264.413 452.1 263.736 453.411 262.466C454.459 261.281 456.294 261.281 457.342 262.382ZM473.461 263.059C473.723 263.651 472.674 264.075 471.233 264.075C468.481 264.075 467.695 263.144 469.398 262.043C470.578 261.281 472.805 261.874 473.461 263.059ZM489.186 263.059C489.448 263.651 488.399 264.075 486.958 264.075C484.206 264.075 483.42 263.144 485.123 262.043C486.303 261.281 488.531 261.874 489.186 263.059ZM250.948 273.385C250.948 274.316 250.031 275.078 248.983 275.078C247.934 275.078 247.017 274.316 247.017 273.385C247.017 272.454 247.934 271.692 248.983 271.692C250.031 271.692 250.948 272.454 250.948 273.385ZM266.674 273.385C266.674 274.316 265.756 275.078 264.708 275.078C262.742 275.078 261.956 273.3 263.66 272.285C265.232 271.184 266.674 271.692 266.674 273.385ZM282.792 272.962C283.84 274.485 281.351 275.586 279.516 274.401C278.075 273.47 279.123 271.692 281.088 271.692C281.613 271.692 282.399 272.285 282.792 272.962ZM298.91 272.623C300.221 274.062 297.207 275.67 295.372 274.485C293.8 273.47 294.848 271.692 296.814 271.692C297.469 271.692 298.386 272.115 298.91 272.623ZM314.636 272.623C315.946 274.062 312.932 275.67 311.097 274.485C309.525 273.47 310.573 271.692 312.539 271.692C313.194 271.692 314.112 272.115 314.636 272.623ZM330.361 272.623C331.671 274.062 328.657 275.67 326.823 274.485C325.25 273.47 326.299 271.692 328.264 271.692C328.919 271.692 329.837 272.115 330.361 272.623ZM346.61 272.877C346.61 273.554 345.955 274.401 345.169 274.739C343.334 275.416 340.844 273.808 341.893 272.623C343.203 271.269 346.61 271.523 346.61 272.877ZM362.336 272.877C362.336 274.654 359.584 275.501 358.404 274.147C357.749 273.554 357.618 272.708 357.88 272.369C359.059 271.184 362.336 271.607 362.336 272.877ZM377.799 273.131C377.143 275.247 374.129 275.501 374.129 273.47C374.129 272.454 374.916 271.692 376.226 271.692C377.406 271.692 378.061 272.285 377.799 273.131ZM393.786 273.47C393.786 275.501 390.772 275.247 390.117 273.131C389.855 272.285 390.51 271.692 391.689 271.692C393 271.692 393.786 272.454 393.786 273.47ZM409.249 273.131C408.725 274.993 406.366 274.824 405.842 273.046C405.58 272.2 406.235 271.692 407.546 271.692C408.856 271.692 409.511 272.285 409.249 273.131ZM425.236 273.47C425.236 275.501 422.222 275.247 421.567 273.131C421.305 272.285 421.96 271.692 423.14 271.692C424.45 271.692 425.236 272.454 425.236 273.47ZM441.748 272.623C442.665 273.639 439.782 275.247 438.079 274.57C437.555 274.316 437.03 273.554 437.03 272.877C437.03 271.438 440.438 271.269 441.748 272.623ZM457.473 272.623C458.784 274.062 455.77 275.67 453.935 274.485C452.362 273.47 453.411 271.692 455.376 271.692C456.032 271.692 456.949 272.115 457.473 272.623ZM473.461 273.216C473.723 273.808 472.674 274.231 471.233 274.231C468.481 274.231 467.695 273.3 469.398 272.2C470.578 271.438 472.805 272.031 473.461 273.216ZM489.186 273.131C488.924 273.977 487.875 274.655 486.827 274.655C485.779 274.655 484.73 273.977 484.468 273.131C484.206 272.115 484.861 271.692 486.827 271.692C488.793 271.692 489.448 272.115 489.186 273.131ZM484.337 276.517C486.041 277.871 485.91 277.955 483.944 276.855C482.634 276.263 481.585 275.586 481.585 275.416C481.585 274.739 482.634 275.162 484.337 276.517ZM250.948 284.049C250.948 284.727 250.031 285.234 248.983 285.234C247.017 285.234 246.231 283.457 247.803 282.441C249.114 281.68 250.948 282.611 250.948 284.049ZM267.198 284.473C266.15 285.658 262.742 285.404 262.742 284.134C262.742 283.457 263.136 282.695 263.66 282.441C264.839 281.68 268.115 283.542 267.198 284.473ZM283.709 283.626C283.709 284.642 279.909 285.658 278.861 284.98C278.468 284.642 278.468 283.88 278.861 283.203C279.647 281.849 283.709 282.272 283.709 283.626ZM298.91 282.78C300.221 284.219 297.207 285.827 295.372 284.642C293.8 283.626 294.848 281.849 296.814 281.849C297.469 281.849 298.386 282.272 298.91 282.78ZM314.636 282.78C315.946 284.219 312.932 285.827 311.097 284.642C309.525 283.626 310.573 281.849 312.539 281.849C313.194 281.849 314.112 282.272 314.636 282.78ZM330.361 282.78C331.671 284.219 328.657 285.827 326.823 284.642C325.25 283.626 326.299 281.849 328.264 281.849C328.919 281.849 329.837 282.272 330.361 282.78ZM346.086 282.78C347.397 284.219 344.383 285.827 342.548 284.642C340.975 283.626 342.024 281.849 343.989 281.849C344.645 281.849 345.562 282.272 346.086 282.78ZM361.68 283.542C361.68 284.134 360.894 284.811 360.108 284.98C359.059 285.234 358.404 284.642 358.404 283.542C358.404 282.441 359.059 281.849 360.108 282.018C360.894 282.272 361.68 282.949 361.68 283.542ZM377.799 283.796C378.061 284.642 377.406 285.234 376.226 285.234C374.916 285.234 374.129 284.473 374.129 283.457C374.129 281.426 377.143 281.68 377.799 283.796ZM393.786 283.542C393.786 284.473 392.869 285.234 391.82 285.234C390.772 285.234 389.855 284.473 389.855 283.542C389.855 282.611 390.772 281.849 391.82 281.849C392.869 281.849 393.786 282.611 393.786 283.542ZM409.511 283.542C409.511 284.473 408.594 285.234 407.546 285.234C406.497 285.234 405.58 284.473 405.58 283.542C405.58 282.611 406.497 281.849 407.546 281.849C408.594 281.849 409.511 282.611 409.511 283.542ZM425.236 283.542C425.236 284.473 424.319 285.234 423.271 285.234C422.222 285.234 421.305 284.473 421.305 283.542C421.305 282.611 422.222 281.849 423.271 281.849C424.319 281.849 425.236 282.611 425.236 283.542ZM441.748 282.78C443.058 284.219 440.044 285.827 438.21 284.642C436.637 283.626 437.686 281.849 439.651 281.849C440.306 281.849 441.224 282.272 441.748 282.78ZM457.473 282.78C458.784 284.219 455.77 285.827 453.935 284.642C452.362 283.626 453.411 281.849 455.376 281.849C456.032 281.849 456.949 282.272 457.473 282.78ZM473.461 283.88C473.854 284.98 473.329 285.319 471.626 285.065C470.184 284.896 469.005 284.134 468.743 283.203C468.35 282.103 468.874 281.764 470.578 282.018C472.019 282.187 473.198 282.949 473.461 283.88ZM489.448 283.542C487.875 285.404 486.172 285.742 484.861 284.388C483.682 283.118 485.385 281.849 488.268 281.849C490.496 281.849 490.627 282.103 489.448 283.542ZM457.211 291.667C458.522 293.868 458.128 295.391 456.163 295.391C453.411 295.391 452.231 293.868 453.935 292.513C454.721 291.921 454.983 291.159 454.459 290.905C454.066 290.567 454.197 290.313 454.983 290.313C455.77 290.313 456.818 290.905 457.211 291.667ZM267.198 294.629C266.15 295.814 262.742 295.56 262.742 294.291C262.742 293.614 263.136 292.852 263.66 292.598C264.839 291.836 268.115 293.698 267.198 294.629ZM299.435 293.783C299.435 294.799 295.634 295.814 294.586 295.137C294.193 294.799 294.193 294.037 294.586 293.36C295.372 292.006 299.435 292.429 299.435 293.783ZM314.636 294.46C313.325 295.814 309.918 295.56 309.918 294.206C309.918 292.767 312.67 291.921 314.374 292.852C314.898 293.275 315.029 293.952 314.636 294.46ZM330.885 294.206C330.885 295.645 327.478 295.814 326.168 294.46C325.25 293.444 328.133 291.836 329.837 292.513C330.361 292.767 330.885 293.529 330.885 294.206ZM346.086 292.937C347.397 294.375 344.383 295.984 342.548 294.799C340.975 293.783 342.024 292.006 343.989 292.006C344.645 292.006 345.562 292.429 346.086 292.937ZM362.336 294.206C362.336 295.391 359.584 295.814 358.011 294.799C356.832 294.037 359.715 291.921 361.156 292.513C361.811 292.767 362.336 293.529 362.336 294.206ZM377.799 293.952C378.061 294.799 377.406 295.391 376.226 295.391C374.916 295.391 374.129 294.629 374.129 293.614C374.129 291.582 377.143 291.836 377.799 293.952ZM393.786 294.206C393.786 294.883 392.869 295.391 391.82 295.391C389.855 295.391 389.068 293.614 390.641 292.598C391.951 291.836 393.786 292.767 393.786 294.206ZM409.511 293.698C409.511 294.629 408.594 295.391 407.546 295.391C406.497 295.391 405.58 294.629 405.58 293.698C405.58 292.767 406.497 292.006 407.546 292.006C408.594 292.006 409.511 292.767 409.511 293.698ZM425.63 292.513C426.809 293.36 425.105 295.391 423.14 295.391C422.091 295.391 421.305 294.883 421.305 294.291C421.305 292.429 423.795 291.328 425.63 292.513ZM442.01 293.952C442.272 294.968 441.617 295.391 439.782 295.391C437.817 295.391 437.03 294.883 437.03 293.614C437.03 291.498 441.355 291.752 442.01 293.952ZM473.198 292.937C474.509 294.375 471.495 295.984 469.66 294.799C468.088 293.783 469.136 292.006 471.102 292.006C471.757 292.006 472.674 292.429 473.198 292.937ZM488.924 292.937C490.234 294.375 487.22 295.984 485.385 294.799C483.813 293.783 484.861 292.006 486.827 292.006C487.482 292.006 488.399 292.429 488.924 292.937ZM250.948 294.122C250.948 294.799 250.031 295.391 248.983 295.391C247.934 295.391 247.017 294.799 247.017 294.122C247.017 293.444 247.934 292.852 248.983 292.852C250.031 292.852 250.948 293.444 250.948 294.122ZM283.447 293.868C282.53 295.476 278.468 295.73 278.468 294.206C278.468 293.36 279.647 292.852 281.22 292.852C282.792 292.852 283.709 293.275 283.447 293.868ZM449.348 294.46C449.873 294.883 448.955 295.053 447.514 294.799C444.5 294.291 444.107 293.698 446.728 293.698C447.776 293.698 448.955 294.037 449.348 294.46ZM441.748 303.178C441.617 305.379 437.03 306.479 437.03 304.363C437.03 303.432 439.651 301.739 441.748 301.316C441.879 301.316 441.879 302.162 441.748 303.178ZM267.198 304.786C266.15 305.971 262.742 305.717 262.742 304.448C262.742 303.77 263.136 303.009 263.66 302.755C264.839 301.993 268.115 303.855 267.198 304.786ZM346.61 304.363C346.61 305.802 343.203 305.971 341.893 304.617C340.975 303.601 343.858 301.993 345.562 302.67C346.086 302.924 346.61 303.686 346.61 304.363ZM362.336 304.363C362.336 305.548 359.584 305.971 358.011 304.955C356.832 304.194 359.715 302.078 361.156 302.67C361.811 302.924 362.336 303.686 362.336 304.363ZM378.061 304.363C378.061 305.04 377.143 305.548 376.095 305.548C374.129 305.548 373.343 303.77 374.916 302.755C376.226 301.993 378.061 302.924 378.061 304.363ZM393.786 304.363C393.786 305.04 392.869 305.548 391.82 305.548C389.855 305.548 389.068 303.77 390.641 302.755C391.951 301.993 393.786 302.924 393.786 304.363ZM410.035 304.786C408.987 305.971 405.58 305.717 405.58 304.448C405.58 303.77 405.973 303.009 406.497 302.755C407.677 301.993 410.953 303.855 410.035 304.786ZM427.071 303.686C429.168 305.209 429.037 305.294 425.236 305.379C421.567 305.463 419.995 304.109 422.222 302.755C423.533 301.824 424.712 302.078 427.071 303.686ZM457.342 303.94C457.342 304.532 456.294 305.209 455.114 305.379C452.756 305.632 451.838 303.855 453.673 302.67C454.983 301.824 457.342 302.585 457.342 303.94ZM473.198 303.093C474.509 304.532 471.495 306.14 469.66 304.955C468.088 303.94 469.136 302.162 471.102 302.162C471.757 302.162 472.674 302.585 473.198 303.093ZM488.924 303.093C490.234 304.532 487.22 306.14 485.385 304.955C483.813 303.94 484.861 302.162 486.827 302.162C487.482 302.162 488.399 302.585 488.924 303.093ZM250.948 304.278C250.948 304.955 250.031 305.548 248.983 305.548C247.934 305.548 247.017 304.955 247.017 304.278C247.017 303.601 247.934 303.009 248.983 303.009C250.031 303.009 250.948 303.601 250.948 304.278ZM282.792 304.278C282.923 304.701 282.006 305.209 280.826 305.379C279.385 305.548 278.468 305.125 278.468 304.278C278.468 302.839 282.399 302.755 282.792 304.278ZM299.173 304.024C298.255 305.632 294.193 305.886 294.193 304.363C294.193 303.516 295.372 303.009 296.945 303.009C298.517 303.009 299.435 303.432 299.173 304.024ZM315.16 304.278C315.16 304.955 313.98 305.548 312.539 305.548C311.098 305.548 309.918 304.955 309.918 304.278C309.918 303.601 311.098 303.009 312.539 303.009C313.98 303.009 315.16 303.601 315.16 304.278ZM330.885 304.363C330.885 305.125 329.968 305.548 328.657 305.379C325.381 304.955 324.988 303.009 328.133 303.009C329.706 303.009 330.885 303.516 330.885 304.363ZM437.03 309.441C437.03 309.611 436.113 309.78 435.065 309.78C434.016 309.78 433.099 309.441 433.099 308.933C433.099 308.51 434.016 308.341 435.065 308.595C436.113 308.933 437.03 309.272 437.03 309.441ZM426.547 314.52C426.547 315.197 425.367 315.705 423.926 315.705C421.436 315.705 420.388 314.096 422.091 312.911C423.402 312.15 426.547 313.25 426.547 314.52ZM441.617 314.096C441.617 314.689 440.569 315.366 439.389 315.535C437.03 315.789 436.113 314.012 437.948 312.827C439.258 311.98 441.617 312.742 441.617 314.096ZM457.342 314.096C457.342 314.689 456.294 315.366 455.114 315.535C452.756 315.789 451.838 314.012 453.673 312.827C454.983 311.98 457.342 312.742 457.342 314.096ZM473.723 314.52C473.723 315.197 472.543 315.705 471.102 315.705C468.219 315.705 467.432 313.504 470.184 312.911C472.281 312.404 473.723 312.996 473.723 314.52ZM489.186 314.266C489.448 315.281 488.793 315.705 486.958 315.705C485.385 315.705 484.206 315.197 484.206 314.604C484.206 311.98 488.399 311.727 489.186 314.266ZM250.686 314.604C250.162 316.466 247.803 316.297 247.279 314.52C247.017 313.673 247.672 313.165 248.983 313.165C250.293 313.165 250.948 313.758 250.686 314.604ZM267.46 314.096C268.377 315.112 265.494 316.72 263.791 316.043C263.267 315.789 262.742 315.027 262.742 314.35C262.742 312.911 266.15 312.742 267.46 314.096ZM282.792 313.758C283.971 314.52 281.089 316.636 279.647 316.043C277.812 315.366 278.206 313.165 280.171 313.165C281.22 313.165 282.399 313.419 282.792 313.758ZM299.173 314.604C298.91 315.451 297.862 316.128 296.814 316.128C295.765 316.128 294.717 315.451 294.455 314.604C294.193 313.589 294.848 313.165 296.814 313.165C298.779 313.165 299.435 313.589 299.173 314.604ZM315.16 314.35C315.16 315.62 312.015 316.72 310.704 315.958C309.001 314.774 310.049 313.165 312.539 313.165C313.98 313.165 315.16 313.673 315.16 314.35ZM330.885 314.266C330.885 315.874 329.575 316.551 327.478 315.958C324.726 315.281 325.25 313.165 328.264 313.165C329.706 313.165 330.885 313.673 330.885 314.266ZM346.61 314.435C346.61 315.112 345.431 315.705 343.989 315.705C341.369 315.705 340.582 314.774 342.286 313.758C343.858 312.658 346.61 313.165 346.61 314.435ZM362.336 314.435C362.336 315.112 361.549 315.705 360.501 315.705C358.273 315.705 356.832 314.52 358.011 313.673C359.584 312.658 362.336 313.165 362.336 314.435ZM378.061 314.435C378.061 315.112 377.274 315.705 376.226 315.705C373.998 315.705 372.557 314.52 373.736 313.673C375.309 312.658 378.061 313.165 378.061 314.435ZM393.786 314.435C393.786 315.112 392.869 315.705 391.82 315.705C390.772 315.705 389.855 315.112 389.855 314.435C389.855 313.758 390.772 313.165 391.82 313.165C392.869 313.165 393.786 313.758 393.786 314.435ZM409.904 314.435C410.035 314.858 409.118 315.366 407.939 315.535C406.497 315.705 405.58 315.281 405.58 314.435C405.58 312.996 409.511 312.911 409.904 314.435Z" fill="#DBA577" fill-opacity="0.8"/>
</svg>
