<svg width="683" height="579" viewBox="0 0 683 579" fill="none" xmlns="http://www.w3.org/2000/svg">
<rect width="983" height="779" fill="#080201"/>
<path d="M119.5 215.58V375.548H315.803C315.803 375.548 535.694 375.633 579.463 375.548H615.5L615.238 230.561C615.107 150.916 614.714 78.8876 614.452 70.5929L614.059 55.6118H366.779H119.5V215.58ZM440.5 99.6118C423.023 99.6118 250.5 101.874 250.5 98.9942C250.5 98.1478 250.5 96.9942 250.5 96.9942C250.5 96.9942 413.65 95.3798 440.5 95.3798V99.6118ZM224.845 216.087L215.5 216.195V123.346L225.5 123.407L224.845 216.087ZM544.736 236.232C544.736 236.486 544.212 236.909 543.426 237.163C542.771 237.417 542.116 237.248 542.116 236.825C542.116 236.317 542.771 235.893 543.426 235.893C544.212 235.893 544.736 236.063 544.736 236.232ZM591.912 236.74C591.912 237.163 591.65 237.586 591.388 237.586C590.995 237.586 590.34 237.163 589.947 236.74C589.553 236.232 589.815 235.893 590.471 235.893C591.257 235.893 591.912 236.232 591.912 236.74ZM544.736 246.389C544.736 246.643 544.212 247.066 543.426 247.32C542.771 247.574 542.116 247.404 542.116 246.981C542.116 246.473 542.771 246.05 543.426 246.05C544.212 246.05 544.736 246.219 544.736 246.389ZM560.462 246.897C560.462 247.32 559.938 247.743 559.151 247.743C558.496 247.743 557.841 247.32 557.841 246.897C557.841 246.389 558.496 246.05 559.151 246.05C559.938 246.05 560.462 246.389 560.462 246.897ZM576.187 246.897C576.187 247.32 575.663 247.743 574.876 247.743C574.221 247.743 573.566 247.32 573.566 246.897C573.566 246.389 574.221 246.05 574.876 246.05C575.663 246.05 576.187 246.389 576.187 246.897ZM591.912 246.897C591.912 247.32 591.388 247.743 590.602 247.743C589.946 247.743 589.291 247.32 589.291 246.897C589.291 246.389 589.946 246.05 590.602 246.05C591.388 246.05 591.912 246.389 591.912 246.897ZM544.736 257.053C544.736 257.477 544.212 257.9 543.426 257.9C542.771 257.9 542.116 257.477 542.116 257.053C542.116 256.545 542.771 256.207 543.426 256.207C544.212 256.207 544.736 256.545 544.736 257.053ZM560.462 257.053C560.462 257.477 559.938 257.9 559.151 257.9C558.496 257.9 557.841 257.477 557.841 257.053C557.841 256.545 558.496 256.207 559.151 256.207C559.938 256.207 560.462 256.545 560.462 257.053ZM576.187 257.053C576.187 257.477 575.663 257.9 574.876 257.9C574.221 257.9 573.566 257.477 573.566 257.053C573.566 256.545 574.221 256.207 574.876 256.207C575.663 256.207 576.187 256.545 576.187 257.053ZM591.912 257.053C591.912 257.477 591.388 257.9 590.602 257.9C589.946 257.9 589.291 257.477 589.291 257.053C589.291 256.545 589.946 256.207 590.602 256.207C591.388 256.207 591.912 256.545 591.912 257.053ZM544.736 267.21C544.736 267.633 544.212 268.056 543.426 268.056C542.771 268.056 542.116 267.633 542.116 267.21C542.116 266.702 542.771 266.364 543.426 266.364C544.212 266.364 544.736 266.702 544.736 267.21ZM560.462 267.21C560.462 267.633 559.544 268.056 558.365 268.056C557.317 268.056 556.792 267.633 557.186 267.21C557.579 266.702 558.496 266.364 559.282 266.364C559.938 266.364 560.462 266.702 560.462 267.21ZM576.187 267.21C576.187 267.633 575.663 268.056 574.876 268.056C574.221 268.056 573.566 267.633 573.566 267.21C573.566 266.702 574.221 266.364 574.876 266.364C575.663 266.364 576.187 266.702 576.187 267.21ZM591.912 267.21C591.912 267.633 591.388 268.056 590.602 268.056C589.946 268.056 589.291 267.633 589.291 267.21C589.291 266.702 589.946 266.364 590.602 266.364C591.388 266.364 591.912 266.702 591.912 267.21ZM544.474 277.451C544.212 277.959 543.426 278.298 542.771 278.298C542.116 278.298 541.329 277.959 541.067 277.451C540.805 276.944 541.591 276.52 542.771 276.52C543.95 276.52 544.736 276.944 544.474 277.451ZM560.462 277.875C560.462 279.313 557.579 279.06 556.792 277.536C556.53 276.944 557.186 276.52 558.365 276.52C559.544 276.52 560.462 277.113 560.462 277.875ZM576.187 277.79C576.187 278.467 575.663 279.06 574.876 279.06C574.221 279.06 573.566 278.467 573.566 277.79C573.566 277.113 574.221 276.52 574.876 276.52C575.663 276.52 576.187 277.113 576.187 277.79ZM591.912 277.79C591.912 278.467 591.388 279.06 590.602 279.06C589.946 279.06 589.291 278.467 589.291 277.79C589.291 277.113 589.946 276.52 590.602 276.52C591.388 276.52 591.912 277.113 591.912 277.79ZM544.736 288.031C544.736 288.793 544.081 289.216 543.164 289.047C540.805 288.539 540.412 286.677 542.64 286.677C543.819 286.677 544.736 287.27 544.736 288.031ZM560.462 288.031C560.462 289.47 557.579 289.216 556.792 287.693C556.53 287.1 557.186 286.677 558.365 286.677C559.544 286.677 560.462 287.27 560.462 288.031ZM576.187 287.947C576.187 288.624 575.663 289.216 575.008 289.216C573.304 289.216 572.125 287.862 573.173 287.185C574.614 286.254 576.187 286.677 576.187 287.947ZM592.567 287.439C593.485 288.454 590.995 289.47 589.291 288.793C587.85 288.201 588.767 286.677 590.602 286.677C591.257 286.677 592.043 287.016 592.567 287.439ZM544.736 298.103C544.736 298.78 543.819 299.373 542.771 299.373C541.722 299.373 540.805 298.78 540.805 298.103C540.805 297.426 541.722 296.834 542.771 296.834C543.819 296.834 544.736 297.426 544.736 298.103ZM560.462 298.188C560.462 299.627 557.579 299.373 556.792 297.849C556.53 297.257 557.186 296.834 558.365 296.834C559.544 296.834 560.462 297.426 560.462 298.188ZM576.842 297.596C577.759 298.611 575.27 299.627 573.566 298.95C572.125 298.357 573.042 296.834 574.876 296.834C575.532 296.834 576.318 297.172 576.842 297.596ZM592.567 297.596C593.485 298.611 590.995 299.627 589.291 298.95C587.85 298.357 588.767 296.834 590.602 296.834C591.257 296.834 592.043 297.172 592.567 297.596ZM544.736 308.26C544.736 308.937 543.819 309.53 542.771 309.53C541.722 309.53 540.805 308.937 540.805 308.26C540.805 307.583 541.722 306.99 542.771 306.99C543.819 306.99 544.736 307.583 544.736 308.26ZM560.855 308.26C560.986 308.683 560.069 309.191 558.889 309.36C557.448 309.53 556.53 309.106 556.53 308.26C556.53 306.821 560.462 306.737 560.855 308.26ZM576.842 307.837C577.235 308.345 576.711 308.937 575.532 309.191C573.042 309.868 571.6 309.191 572.911 307.922C573.959 306.737 575.794 306.737 576.842 307.837ZM593.223 307.752C593.223 308.937 590.864 309.699 589.291 309.106C588.505 308.768 588.243 308.175 588.636 307.752C589.684 306.737 593.223 306.737 593.223 307.752ZM544.736 318.417C544.736 319.094 543.819 319.686 542.771 319.686C541.722 319.686 540.805 319.094 540.805 318.417C540.805 317.74 541.722 317.147 542.771 317.147C543.819 317.147 544.736 317.74 544.736 318.417ZM560.2 318.586C559.675 320.448 557.317 320.279 556.792 318.501C556.53 317.655 557.186 317.147 558.496 317.147C559.806 317.147 560.462 317.74 560.2 318.586ZM576.842 317.994C577.235 318.501 576.711 319.094 575.532 319.348C573.042 320.025 571.6 319.348 572.911 318.078C573.959 316.893 575.794 316.893 576.842 317.994ZM592.961 318.671C593.223 319.263 592.174 319.686 590.733 319.686C587.981 319.686 587.195 318.755 588.898 317.655C590.078 316.893 592.305 317.486 592.961 318.671ZM370.448 328.997C370.448 329.928 369.531 330.689 368.483 330.689C367.434 330.689 366.517 329.928 366.517 328.997C366.517 328.066 367.434 327.304 368.483 327.304C369.531 327.304 370.448 328.066 370.448 328.997ZM386.174 328.997C386.174 329.928 385.256 330.689 384.208 330.689C382.242 330.689 381.456 328.912 383.16 327.896C384.732 326.796 386.174 327.304 386.174 328.997ZM402.292 328.574C403.34 330.097 400.851 331.197 399.016 330.012C397.575 329.081 398.623 327.304 400.589 327.304C401.113 327.304 401.899 327.896 402.292 328.574ZM418.41 328.235C419.721 329.674 416.707 331.282 414.872 330.097C413.3 329.081 414.348 327.304 416.314 327.304C416.969 327.304 417.886 327.727 418.41 328.235ZM434.136 328.235C435.446 329.674 432.432 331.282 430.598 330.097C429.025 329.081 430.073 327.304 432.039 327.304C432.694 327.304 433.612 327.727 434.136 328.235ZM449.861 328.235C451.171 329.674 448.157 331.282 446.323 330.097C444.75 329.081 445.799 327.304 447.764 327.304C448.419 327.304 449.337 327.727 449.861 328.235ZM466.11 328.489C466.11 329.166 465.455 330.012 464.669 330.351C462.834 331.028 460.344 329.42 461.393 328.235C462.703 326.881 466.11 327.135 466.11 328.489ZM481.836 328.489C481.836 330.266 479.084 331.113 477.904 329.758C477.249 329.166 477.118 328.32 477.38 327.981C478.559 326.796 481.836 327.219 481.836 328.489ZM497.299 328.743C496.643 330.859 493.629 331.113 493.629 329.081C493.629 328.066 494.416 327.304 495.726 327.304C496.906 327.304 497.561 327.896 497.299 328.743ZM513.286 329.081C513.286 331.113 510.272 330.859 509.617 328.743C509.355 327.896 510.01 327.304 511.189 327.304C512.5 327.304 513.286 328.066 513.286 329.081ZM528.749 328.743C528.225 330.605 525.866 330.436 525.342 328.658C525.08 327.812 525.735 327.304 527.046 327.304C528.356 327.304 529.011 327.896 528.749 328.743ZM544.736 329.081C544.736 331.113 541.722 330.859 541.067 328.743C540.805 327.896 541.46 327.304 542.64 327.304C543.95 327.304 544.736 328.066 544.736 329.081ZM561.248 328.235C562.165 329.251 559.282 330.859 557.579 330.182C557.055 329.928 556.53 329.166 556.53 328.489C556.53 327.05 559.938 326.881 561.248 328.235ZM576.973 328.235C578.284 329.674 575.27 331.282 573.435 330.097C571.862 329.081 572.911 327.304 574.876 327.304C575.532 327.304 576.449 327.727 576.973 328.235ZM592.961 328.827C593.223 329.42 592.174 329.843 590.733 329.843C587.981 329.843 587.195 328.912 588.898 327.812C590.078 327.05 592.305 327.642 592.961 328.827ZM370.448 339.661C370.448 340.338 369.531 340.846 368.483 340.846C366.517 340.846 365.731 339.069 367.303 338.053C368.614 337.291 370.448 338.222 370.448 339.661ZM386.698 340.084C385.65 341.269 382.242 341.015 382.242 339.746C382.242 339.069 382.636 338.307 383.16 338.053C384.339 337.291 387.615 339.153 386.698 340.084ZM403.209 339.238C403.209 340.254 399.409 341.269 398.361 340.592C397.968 340.254 397.968 339.492 398.361 338.815C399.147 337.461 403.209 337.884 403.209 339.238ZM418.41 338.392C419.721 339.831 416.707 341.439 414.872 340.254C413.3 339.238 414.348 337.461 416.314 337.461C416.969 337.461 417.886 337.884 418.41 338.392ZM434.136 338.392C435.446 339.831 432.432 341.439 430.598 340.254C429.025 339.238 430.073 337.461 432.039 337.461C432.694 337.461 433.612 337.884 434.136 338.392ZM449.861 338.392C451.171 339.831 448.157 341.439 446.323 340.254C444.75 339.238 445.799 337.461 447.764 337.461C448.419 337.461 449.337 337.884 449.861 338.392ZM465.586 338.392C466.897 339.831 463.883 341.439 462.048 340.254C460.475 339.238 461.524 337.461 463.489 337.461C464.145 337.461 465.062 337.884 465.586 338.392ZM481.18 339.153C481.18 339.746 480.394 340.423 479.608 340.592C478.559 340.846 477.904 340.254 477.904 339.153C477.904 338.053 478.559 337.461 479.608 337.63C480.394 337.884 481.18 338.561 481.18 339.153ZM497.299 339.407C497.561 340.254 496.906 340.846 495.726 340.846C494.416 340.846 493.629 340.084 493.629 339.069C493.629 337.037 496.643 337.291 497.299 339.407ZM513.286 339.153C513.286 340.084 512.369 340.846 511.32 340.846C510.272 340.846 509.355 340.084 509.355 339.153C509.355 338.222 510.272 337.461 511.32 337.461C512.369 337.461 513.286 338.222 513.286 339.153ZM529.011 339.153C529.011 340.084 528.094 340.846 527.046 340.846C525.997 340.846 525.08 340.084 525.08 339.153C525.08 338.222 525.997 337.461 527.046 337.461C528.094 337.461 529.011 338.222 529.011 339.153ZM544.736 339.153C544.736 340.084 543.819 340.846 542.771 340.846C541.722 340.846 540.805 340.084 540.805 339.153C540.805 338.222 541.722 337.461 542.771 337.461C543.819 337.461 544.736 338.222 544.736 339.153ZM561.248 338.392C562.558 339.831 559.544 341.439 557.71 340.254C556.137 339.238 557.186 337.461 559.151 337.461C559.806 337.461 560.724 337.884 561.248 338.392ZM576.973 338.392C578.284 339.831 575.27 341.439 573.435 340.254C571.862 339.238 572.911 337.461 574.876 337.461C575.532 337.461 576.449 337.884 576.973 338.392ZM592.961 339.492C593.354 340.592 592.829 340.931 591.126 340.677C589.684 340.508 588.505 339.746 588.243 338.815C587.85 337.715 588.374 337.376 590.078 337.63C591.519 337.799 592.698 338.561 592.961 339.492ZM576.711 347.279C578.022 349.479 577.628 351.003 575.663 351.003C572.911 351.003 571.731 349.479 573.435 348.125C574.221 347.533 574.483 346.771 573.959 346.517C573.566 346.178 573.697 345.925 574.483 345.925C575.27 345.925 576.318 346.517 576.711 347.279ZM386.698 350.241C385.65 351.426 382.242 351.172 382.242 349.903C382.242 349.225 382.636 348.464 383.16 348.21C384.339 347.448 387.615 349.31 386.698 350.241ZM418.935 349.395C418.935 350.41 415.134 351.426 414.086 350.749C413.693 350.41 413.693 349.649 414.086 348.972C414.872 347.617 418.935 348.041 418.935 349.395ZM434.136 350.072C432.825 351.426 429.418 351.172 429.418 349.818C429.418 348.379 432.17 347.533 433.874 348.464C434.398 348.887 434.529 349.564 434.136 350.072ZM450.385 349.818C450.385 351.257 446.978 351.426 445.668 350.072C444.75 349.056 447.633 347.448 449.337 348.125C449.861 348.379 450.385 349.141 450.385 349.818ZM465.586 348.548C466.897 349.987 463.883 351.595 462.048 350.41C460.475 349.395 461.524 347.617 463.489 347.617C464.145 347.617 465.062 348.041 465.586 348.548ZM481.836 349.818C481.836 351.003 479.084 351.426 477.511 350.41C476.332 349.649 479.215 347.533 480.656 348.125C481.311 348.379 481.836 349.141 481.836 349.818ZM497.299 349.564C497.561 350.41 496.906 351.003 495.726 351.003C494.416 351.003 493.629 350.241 493.629 349.226C493.629 347.194 496.643 347.448 497.299 349.564ZM513.286 349.818C513.286 350.495 512.369 351.003 511.32 351.003C509.355 351.003 508.568 349.226 510.141 348.21C511.451 347.448 513.286 348.379 513.286 349.818ZM529.011 349.31C529.011 350.241 528.094 351.003 527.046 351.003C525.997 351.003 525.08 350.241 525.08 349.31C525.08 348.379 525.997 347.617 527.046 347.617C528.094 347.617 529.011 348.379 529.011 349.31ZM545.13 348.125C546.309 348.972 544.605 351.003 542.64 351.003C541.591 351.003 540.805 350.495 540.805 349.903C540.805 348.041 543.295 346.94 545.13 348.125ZM561.51 349.564C561.772 350.58 561.117 351.003 559.282 351.003C557.317 351.003 556.53 350.495 556.53 349.226C556.53 347.11 560.855 347.363 561.51 349.564ZM592.698 348.548C594.009 349.987 590.995 351.595 589.16 350.41C587.588 349.395 588.636 347.617 590.602 347.617C591.257 347.617 592.174 348.041 592.698 348.548ZM370.448 349.733C370.448 350.41 369.531 351.003 368.483 351.003C367.434 351.003 366.517 350.41 366.517 349.733C366.517 349.056 367.434 348.464 368.483 348.464C369.531 348.464 370.448 349.056 370.448 349.733ZM402.947 349.479C402.03 351.088 397.968 351.341 397.968 349.818C397.968 348.972 399.147 348.464 400.72 348.464C402.292 348.464 403.209 348.887 402.947 349.479ZM568.848 350.072C569.373 350.495 568.455 350.664 567.014 350.41C564 349.903 563.607 349.31 566.228 349.31C567.276 349.31 568.455 349.649 568.848 350.072ZM561.248 358.79C561.117 360.99 556.53 362.091 556.53 359.975C556.53 359.044 559.151 357.351 561.248 356.928C561.379 356.928 561.379 357.774 561.248 358.79ZM386.698 360.398C385.65 361.583 382.242 361.329 382.242 360.059C382.242 359.382 382.636 358.62 383.16 358.367C384.339 357.605 387.615 359.467 386.698 360.398ZM466.11 359.975C466.11 361.414 462.703 361.583 461.393 360.229C460.475 359.213 463.358 357.605 465.062 358.282C465.586 358.536 466.11 359.298 466.11 359.975ZM481.836 359.975C481.836 361.16 479.084 361.583 477.511 360.567C476.332 359.805 479.215 357.689 480.656 358.282C481.311 358.536 481.836 359.298 481.836 359.975ZM497.561 359.975C497.561 360.652 496.643 361.16 495.595 361.16C493.629 361.16 492.843 359.382 494.416 358.367C495.726 357.605 497.561 358.536 497.561 359.975ZM513.286 359.975C513.286 360.652 512.369 361.16 511.32 361.16C509.355 361.16 508.568 359.382 510.141 358.367C511.451 357.605 513.286 358.536 513.286 359.975ZM529.535 360.398C528.487 361.583 525.08 361.329 525.08 360.059C525.08 359.382 525.473 358.62 525.997 358.367C527.177 357.605 530.453 359.467 529.535 360.398ZM546.571 359.298C548.668 360.821 548.537 360.906 544.736 360.99C541.067 361.075 539.495 359.721 541.722 358.367C543.033 357.436 544.212 357.689 546.571 359.298ZM576.842 359.551C576.842 360.144 575.794 360.821 574.614 360.99C572.256 361.244 571.338 359.467 573.173 358.282C574.483 357.436 576.842 358.197 576.842 359.551ZM592.698 358.705C594.009 360.144 590.995 361.752 589.16 360.567C587.588 359.551 588.636 357.774 590.602 357.774C591.257 357.774 592.174 358.197 592.698 358.705ZM370.448 359.89C370.448 360.567 369.531 361.16 368.483 361.16C367.434 361.16 366.517 360.567 366.517 359.89C366.517 359.213 367.434 358.62 368.483 358.62C369.531 358.62 370.448 359.213 370.448 359.89ZM402.292 359.89C402.423 360.313 401.506 360.821 400.326 360.99C398.885 361.16 397.968 360.736 397.968 359.89C397.968 358.451 401.899 358.367 402.292 359.89ZM418.673 359.636C417.755 361.244 413.693 361.498 413.693 359.975C413.693 359.128 414.872 358.62 416.445 358.62C418.017 358.62 418.935 359.044 418.673 359.636ZM434.66 359.89C434.66 360.567 433.48 361.16 432.039 361.16C430.597 361.16 429.418 360.567 429.418 359.89C429.418 359.213 430.597 358.62 432.039 358.62C433.48 358.62 434.66 359.213 434.66 359.89ZM450.385 359.975C450.385 360.736 449.468 361.16 448.157 360.99C444.881 360.567 444.488 358.62 447.633 358.62C449.206 358.62 450.385 359.128 450.385 359.975Z" fill="#DBA577" fill-opacity="0.8"/>
<path d="M205.521 93.2537C205.521 92.9151 207.094 91.4763 208.929 90.0374C212.991 86.8211 210.632 86.4826 204.08 89.3603C193.727 93.8462 190.189 102.395 197.135 105.95C203.163 108.997 211.025 107.896 213.515 103.749C215.481 100.448 213.777 96.9779 209.322 95.2851C207.225 94.4387 205.521 93.5922 205.521 93.2537Z" fill="#0A0301"/>
<path d="M236.417 96.1203C232.355 94.6814 232.486 93.4964 236.679 90.7033C239.693 88.7566 239.824 88.5027 237.728 88.5027C230.52 88.5874 222.106 96.368 221.844 101.954C221.582 110.418 238.749 112.449 242.68 104.493C243.86 102.039 240.348 97.3899 236.417 96.1203Z" fill="#040000"/>
</svg>
